<svg xmlns="http://www.w3.org/2000/svg" viewBox="0 0 600 450" width="600" height="450">
<rect width="600" height="450" fill="#2B6E63"/>
<path d="M -20 237 Q 26 230 66 182 Q 118 193 158 184 Q 236 182 276 224 Q 326 258 366 209 Q 443 196 483 265 Q 535 261 575 222 Q 603 194 643 258 " stroke="#2B6E63" stroke-width="3" fill="none" stroke-opacity="0.42"/>
<path d="M -20 168 Q 34 205 74 198 Q 151 197 191 156 Q 217 125 257 189 Q 334 191 374 237 Q 424 209 464 248 Q 506 248 546 243 Q 605 229 645 264 " stroke="#C9A227" stroke-width="3" fill="none" stroke-opacity="0.5"/>
<path d="M -20 284 Q 33 251 73 257 Q 144 287 184 314 Q 262 285 302 255 Q 368 266 408 302 Q 473 342 513 347 Q 533 370 573 365 Q 645 367 685 416 " stroke="#16211E" stroke-width="1" fill="none" stroke-opacity="0.3"/>
<path d="M -20 206 Q 4 238 44 170 Q 78 148 118 140 Q 189 157 229 149 Q 254 149 294 99 Q 370 121 410 104 Q 436 134 476 82 Q 514 57 554 112 Q 609 141 649 94 " stroke="#2B6E63" stroke-width="1" fill="none" stroke-opacity="0.4"/>
<path d="M -20 348 Q 18 319 58 344 Q 116 353 156 386 Q 196 376 236 399 Q 274 383 314 362 Q 386 326 426 325 Q 485 318 525 349 Q 575 320 615 297 Q 678 273 718 333 " stroke="#C9A227" stroke-width="1" fill="none" stroke-opacity="0.34"/>
<path d="M -20 59 Q 57 88 97 88 Q 160 115 200 78 Q 237 68 277 84 Q 351 119 391 51 Q 463 85 503 44 Q 540 67 580 41 Q 642 46 682 63 " stroke="#16211E" stroke-width="1" fill="none" stroke-opacity="0.44"/>
<circle cx="138" cy="269" r="6" fill="#16211E" fill-opacity="0.6"/>
<circle cx="363" cy="117" r="3" fill="#2B6E63" fill-opacity="0.6"/>
<circle cx="297" cy="79" r="3" fill="#C9A227" fill-opacity="0.6"/>
<circle cx="194" cy="190" r="5" fill="#2B6E63" fill-opacity="0.6"/>
<circle cx="123" cy="420" r="3" fill="#16211E" fill-opacity="0.6"/>
<circle cx="244" cy="43" r="6" fill="#16211E" fill-opacity="0.6"/>
<circle cx="567" cy="328" r="2" fill="#2B6E63" fill-opacity="0.6"/>
<circle cx="147" cy="345" r="3" fill="#16211E" fill-opacity="0.6"/>
<circle cx="142" cy="220" r="2" fill="#C9A227" fill-opacity="0.6"/>
<circle cx="138" cy="38" r="6" fill="#2B6E63" fill-opacity="0.6"/>
</svg>