<svg xmlns="http://www.w3.org/2000/svg" viewBox="0 0 600 450" width="600" height="450">
<rect width="600" height="450" fill="#1F3A34"/>
<path d="M -20 358 Q 22 385 62 399 Q 83 418 123 446 Q 192 437 232 506 Q 293 486 333 452 Q 360 472 400 439 Q 475 447 515 410 Q 569 443 609 363 Q 644 350 684 304 " stroke="#1F3A34" stroke-width="2" fill="none" stroke-opacity="0.24"/>
<path d="M -20 183 Q 55 192 95 221 Q 125 190 165 258 Q 193 297 233 277 Q 281 253 321 233 Q 341 193 381 284 Q 414 271 454 323 Q 484 304 524 374 Q 562 359 602 354 Q 656 394 696 406 " stroke="#2B6E63" stroke-width="1" fill="none" stroke-opacity="0.21"/>
<path d="M -20 133 Q 44 142 84 98 Q 123 104 163 40 Q 209 18 249 1 Q 285 3 325 -51 Q 364 -14 404 -7 Q 461 29 501 -67 Q 564 -64 604 -37 Q 628 -32 668 -58 " stroke="#F2C94C" stroke-width="2" fill="none" stroke-opacity="0.48"/>
<path d="M -20 286 Q 11 306 51 287 Q 116 254 156 249 Q 192 211 232 309 Q 312 314 352 344 Q 426 306 466 335 Q 521 348 561 375 Q 604 409 644 363 " stroke="#1F3A34" stroke-width="1" fill="none" stroke-opacity="0.39"/>
<path d="M -20 271 Q 11 256 51 290 Q 78 281 118 326 Q 197 345 237 370 Q 279 375 319 375 Q 396 367 436 382 Q 505 355 545 381 Q 602 388 642 416 " stroke="#2B6E63" stroke-width="2" fill="none" stroke-opacity="0.17"/>
<path d="M -20 58 Q 5 61 45 24 Q 97 30 137 42 Q 215 45 255 0 Q 292 29 332 58 Q 357 58 397 37 Q 436 7 476 -1 Q 536 -2 576 -42 Q 626 -76 666 -82 " stroke="#F2C94C" stroke-width="1" fill="none" stroke-opacity="0.3"/>
<circle cx="566" cy="227" r="2" fill="#1F3A34" fill-opacity="0.6"/>
<circle cx="372" cy="148" r="5" fill="#F2C94C" fill-opacity="0.6"/>
<circle cx="451" cy="94" r="2" fill="#F2C94C" fill-opacity="0.6"/>
<circle cx="53" cy="430" r="5" fill="#2B6E63" fill-opacity="0.6"/>
<circle cx="232" cy="86" r="6" fill="#1F3A34" fill-opacity="0.6"/>
<circle cx="443" cy="74" r="3" fill="#2B6E63" fill-opacity="0.6"/>
<circle cx="401" cy="96" r="2" fill="#2B6E63" fill-opacity="0.6"/>
<circle cx="321" cy="92" r="5" fill="#F2C94C" fill-opacity="0.6"/>
<circle cx="193" cy="287" r="5" fill="#2B6E63" fill-opacity="0.6"/>
<circle cx="345" cy="265" r="4" fill="#2B6E63" fill-opacity="0.6"/>
<circle cx="501" cy="226" r="3" fill="#1F3A34" fill-opacity="0.6"/>
<circle cx="406" cy="292" r="3" fill="#F2C94C" fill-opacity="0.6"/>
</svg>